<svg width="192.000000pt" height="192.000000pt" viewBox="0 0 192.000000 192.000000" xmlns="http://www.w3.org/2000/svg">
  <g transform="translate(0.000000,192.000000) scale(0.100000,-0.100000)" fill="#fefefe" stroke="none">
    <path d="M0 960 l0 -960 960 0 960 0 0 960 0 960 -960 0 -960 0 0 -960z m1000
451 l0 -209 34 -26 c19 -14 39 -26 45 -26 l11 0 0 101 0 100 10 -6 10 -6 0
-108 0 -107 28 -25 c15 -14 116 -92 225 -174 173 -130 214 -165 191 -165 -3 0
-97 70 -209 155 -113 85 -212 155 -220 155 l-15 0 0 -26 0 -26 27 -22 c44 -35
293 -224 366 -278 37 -27 67 -54 67 -59 0 -5 -3 -9 -6 -9 -3 0 -101 72 -218
160 -117 88 -218 160 -224 160 l-12 0 0 -210 0 -210 252 -2 251 -3 5 -12 4
-13 -256 0 -256 0 0 -30 0 -30 315 0 315 0 0 -15 0 -15 -315 0 -315 0 0 -89 0
-90 -10 -6 -10 -6 0 95 0 96 -315 0 -315 0 0 280 0 280 -14 0 c-8 0 -28 -12
-45 -26 l-31 -26 0 66 0 65 112 88 c61 48 150 118 196 155 l85 67 11 -6 c6 -4
48 -36 93 -70 44 -35 86 -63 92 -63 l11 0 0 183 c0 101 3 187 7 190 3 4 10 7
15 7 l8 0 0 -209z" />
    <path d="M760 1308 l1 -33 89 -65 c49 -36 96 -66 105 -68 l15 -3 0 28 0 28
-96 73 c-52 39 -100 72 -105 72 -5 0 -9 -15 -9 -32z" />
    <path d="M731 1226 c-7 -8 -52 -45 -101 -82 l-90 -69 0 -262 0 -263 85 0 85 0
0 110 0 110 60 0 60 0 0 -110 0 -110 70 0 70 0 0 273 -1 272 -98 73 c-54 39
-105 72 -113 72 -9 0 -21 -6 -27 -14z" />
    <path d="M990 1131 l0 -28 38 -27 c21 -14 43 -26 50 -26 l12 0 0 29 0 28 -38
27 c-21 14 -43 26 -50 26 l-12 0 0 -29z" />
    <path d="M1000 805 l0 -255 45 0 45 0 0 225 0 225 -32 30 c-18 16 -39 30 -45
30 l-13 0 0 -255z" />
    <path d="M830 490 l0 -30 70 0 70 0 0 30 0 30 -70 0 -70 0 0 -30z" />
    <path d="M990 490 l0 -30 50 0 50 0 0 30 0 30 -50 0 -50 0 0 -30z" />
  </g>
  <g transform="translate(0.000000,192.000000) scale(0.100000,-0.100000)" fill="#1d50ad" stroke="none">
    <path d="M970 1310 l0 -60 -25 6 -25 6 0 -22 0 -22 25 -20 c14 -11 25 -28 25
-39 l0 -20 -29 20 c-16 12 -36 21 -45 21 l-16 0 0 -18 0 -18 45 -34 45 -34 0
-88 0 -88 15 0 15 0 0 75 c0 41 4 75 8 75 4 0 13 -5 19 -11 14 -14 43 -5 43
13 0 7 -16 24 -35 37 l-35 24 0 19 0 19 19 -11 c11 -5 23 -15 26 -20 3 -6 15
-10 26 -10 l20 0 15 36 15 35 -3 87 -3 87 -17 3 -17 3 -3 -101 -3 -100 -37 31
-38 30 0 75 0 74 -15 0 -15 0 0 -60z" />
    <path d="M715 768 c-3 -7 -6 -58 -7 -113 l-3 -100 -55 -5 -55 -5 -27 -50 c-15
-27 -27 -56 -27 -62 l-1 -13 118 0 117 0 17 40 17 40 17 0 17 0 -7 46 c-3 26
-6 89 -6 140 l0 94 -55 0 -56 0 -4 -12z" />
  </g>
  <g transform="translate(0.000000,192.000000) scale(0.100000,-0.100000)" fill="#226988" stroke="none">
    <path d="M666 1319 c-47 -39 -86 -76 -86 -83 0 -7 -10 -33 -23 -57 -13 -24
-42 -87 -65 -140 l-42 -96 0 -162 0 -161 13 0 13 0 37 80 37 80 0 142 0 143
96 75 c53 41 104 79 114 85 l19 9 -6 47 -6 48 22 -6 21 -5 0 22 c0 23 -25 49
-46 50 -6 0 -50 -32 -98 -71z" />
  </g>
  <g transform="translate(0.000000,192.000000) scale(0.100000,-0.100000)" fill="#205e98" stroke="none">
    <path d="M970 1492 l0 -139 15 0 15 0 0 139 0 138 -15 0 -15 0 0 -138z" />
    <path d="M799 1345 c-1 -8 -2 -19 -3 -24 -1 -10 112 -101 126 -101 4 0 8 4 8
9 0 5 2 16 5 23 l6 14 -65 47 c-35 26 -67 47 -70 47 -3 0 -7 -7 -7 -15z" />
    <path d="M763 1260 c3 -11 2 -18 -3 -15 -4 3 -14 -3 -21 -12 l-14 -17 19 7 19
7 53 -40 c29 -22 56 -40 59 -40 8 0 38 30 34 34 -2 1 -32 24 -66 49 -34 26
-67 47 -73 47 l-12 0 5 -20z" />
    <path d="M900 1130 c0 -5 7 -10 16 -10 l15 0 -6 10 c-3 6 -10 10 -16 10 -5 0
-9 -4 -9 -10z" />
    <path d="M516 735 c-16 -33 -33 -63 -39 -66 -5 -3 -8 -9 -8 -13 3 -20 0 -26
-9 -21 l-10 6 0 -110 0 -111 57 0 c31 0 54 3 50 6 -6 7 28 80 51 107 l15 17
-36 0 -36 0 -3 123 -3 122 -29 -60z" />
    <path d="M710 764 l0 -16 15 12 c8 7 15 14 15 16 0 2 -7 4 -15 4 -8 0 -15 -7
-15 -16z" />
  </g>
  <g transform="translate(0.000000,192.000000) scale(0.100000,-0.100000)" fill="#1b41c2" stroke="none">
    <path d="M1105 1173 l-7 -23 -11 7 -10 6 6 -16 c3 -9 2 -19 -3 -22 l-10 -6 6
-25 6 -24 -23 -20 -24 -21 23 -15 22 -16 0 -164 0 -164 14 0 c8 0 17 7 20 16
3 9 6 74 6 146 l0 130 35 -27 c37 -28 68 -30 72 -5 l3 15 -55 39 -55 39 0 19
c0 10 3 18 6 18 5 0 82 -55 111 -80 7 -5 17 -10 24 -10 l11 0 -7 27 c-3 15
-10 30 -14 33 -5 3 -36 25 -69 50 l-61 45 -4 35 -4 35 -8 -22z" />
    <path d="M968 736 l-3 -181 -74 -1 -73 -1 -29 -64 -28 -64 111 -3 110 -3 14
12 14 12 -6 32 -6 32 21 6 c27 7 27 33 1 40 l-20 5 0 179 0 180 -15 0 -15 0
-2 -181z m0 -249 l-3 -22 -64 0 -65 0 -6 25 -7 25 74 -3 74 -4 -3 -21z" />
    <path d="M1220 895 c0 -8 7 -15 15 -15 8 0 15 7 15 15 0 8 -7 15 -15 15 -8 0
-15 -7 -15 -15z" />
  </g>
  <g transform="translate(0.000000,192.000000) scale(0.100000,-0.100000)" fill="#f0f2f6" stroke="none">
    <path d="M968 1624 c-5 -4 -8 -91 -8 -192 l0 -185 -20 18 c-11 10 -23 16 -26
13 -3 -3 9 -16 26 -28 17 -12 33 -20 36 -18 2 3 3 94 2 202 -2 109 -6 194 -10
190z" />
    <path d="M990 1620 c0 -5 5 -10 10 -10 6 0 10 5 10 10 0 6 -4 10 -10 10 -5 0
-10 -4 -10 -10z" />
    <path d="M715 1360 c-10 -11 -14 -20 -8 -20 5 0 18 9 28 20 10 11 14 20 8 20
-5 0 -18 -9 -28 -20z" />
    <path d="M780 1371 c0 -5 7 -12 16 -15 24 -9 28 -7 14 9 -14 17 -30 20 -30 6z" />
    <path d="M1080 1351 c0 -6 7 -8 15 -5 l15 6 0 -120 0 -120 16 -6 c26 -10 28
-7 11 12 l-16 18 -3 109 -3 110 -17 3 c-10 2 -18 -1 -18 -7z" />
    <path d="M835 1330 c3 -5 11 -10 16 -10 6 0 7 5 4 10 -3 6 -11 10 -16 10 -6 0
-7 -4 -4 -10z" />
    <path d="M665 1320 c-3 -5 -2 -10 4 -10 5 0 13 5 16 10 3 6 2 10 -4 10 -5 0
-13 -4 -16 -10z" />
    <path d="M825 1285 c32 -26 45 -31 45 -16 0 5 -9 13 -20 16 -11 3 -20 11 -20
16 0 5 -8 9 -17 9 l-18 0 30 -25z" />
    <path d="M875 1300 c3 -5 11 -10 16 -10 6 0 7 5 4 10 -3 6 -11 10 -16 10 -6 0
-7 -4 -4 -10z" />
    <path d="M615 1280 c-3 -5 -2 -10 4 -10 5 0 13 5 16 10 3 6 2 10 -4 10 -5 0
-13 -4 -16 -10z" />
    <path d="M775 1270 c3 -5 11 -10 16 -10 6 0 7 5 4 10 -3 6 -11 10 -16 10 -6 0
-7 -4 -4 -10z" />
    <path d="M575 1250 l-6 -10 15 0 c9 0 16 5 16 10 0 6 -4 10 -9 10 -6 0 -13 -4
-16 -10z" />
    <path d="M885 1240 c3 -5 11 -10 16 -10 6 0 7 5 4 10 -3 6 -11 10 -16 10 -6 0
-7 -4 -4 -10z" />
    <path d="M770 1225 c7 -8 17 -15 22 -15 l10 0 -12 15 c-7 8 -17 15 -22 15
l-10 0 12 -15z" />
    <path d="M529 1214 l-13 -16 18 3 c11 2 21 10 24 17 5 17 -13 15 -29 -4z" />
    <path d="M840 1220 c0 -5 4 -10 8 -10 5 0 19 -9 32 -20 13 -11 28 -20 34 -20
12 1 -54 59 -66 60 -5 0 -8 -4 -8 -10z" />
    <path d="M925 1210 c3 -5 10 -10 16 -10 5 0 9 5 9 10 0 6 -7 10 -16 10 l-15 0
6 -10z" />
    <path d="M1000 1213 c0 -9 50 -53 62 -53 14 0 9 7 -27 34 -19 15 -35 24 -35
19z" />
    <path d="M700 1195 l-12 -15 10 0 c5 0 15 7 22 15 l12 15 -10 0 c-5 0 -15 -7
-22 -15z" />
    <path d="M815 1190 c3 -5 11 -10 16 -10 6 0 7 5 4 10 -3 6 -11 10 -16 10 -6 0
-7 -4 -4 -10z" />
    <path d="M460 1160 l-35 -29 17 -1 c9 0 21 6 25 13 4 8 16 16 26 20 17 6 24
27 10 27 -5 0 -24 -14 -43 -30z" />
    <path d="M960 1176 c0 -8 -3 -21 -6 -30 l-6 -16 16 0 16 0 0 30 c0 17 -4 30
-10 30 -5 0 -10 -6 -10 -14z" />
    <path d="M655 1160 c-3 -5 -2 -10 4 -10 5 0 13 5 16 10 3 6 2 10 -4 10 -5 0
-13 -4 -16 -10z" />
    <path d="M850 1167 c0 -2 25 -21 55 -43 l55 -39 -2 -268 -3 -267 13 0 12 0 0
268 -1 267 -58 43 c-53 38 -71 48 -71 39z" />
    <path d="M1005 1150 c3 -5 11 -10 16 -10 6 0 7 5 4 10 -3 6 -11 10 -16 10 -6
0 -7 -4 -4 -10z" />
    <path d="M605 1120 c-3 -5 -2 -10 4 -10 5 0 13 5 16 10 3 6 2 10 -4 10 -5 0
-13 -4 -16 -10z" />
    <path d="M1045 1120 c3 -5 11 -10 16 -10 6 0 7 5 4 10 -3 6 -11 10 -16 10 -6
0 -7 -4 -4 -10z" />
    <path d="M385 1100 l-6 -10 15 0 c9 0 16 5 16 10 0 6 -4 10 -9 10 -6 0 -13 -4
-16 -10z" />
    <path d="M565 1090 c-3 -5 -2 -10 4 -10 5 0 13 5 16 10 3 6 2 10 -4 10 -5 0
-13 -4 -16 -10z" />
    <path d="M1040 1070 c19 -16 38 -30 43 -30 4 0 7 7 7 16 0 8 -4 13 -9 10 -5
-3 -20 3 -34 14 -40 31 -46 23 -7 -10z" />
    <path d="M1110 1051 c0 -30 22 -61 43 -61 7 1 2 9 -10 19 -24 20 -31 51 -12
51 5 0 7 5 4 10 -12 20 -25 10 -25 -19z" />
    <path d="M1205 1050 c3 -5 11 -10 16 -10 6 0 7 5 4 10 -3 6 -11 10 -16 10 -6
0 -7 -4 -4 -10z" />
    <path d="M1155 1040 c3 -5 11 -10 16 -10 6 0 7 5 4 10 -3 6 -11 10 -16 10 -6
0 -7 -4 -4 -10z" />
    <path d="M1053 1013 c9 -9 20 -13 24 -9 4 4 1 11 -7 16 -25 16 -35 11 -17 -7z" />
    <path d="M1245 1020 c3 -5 11 -10 16 -10 6 0 7 5 4 10 -3 6 -11 10 -16 10 -6
0 -7 -4 -4 -10z" />
    <path d="M1203 1003 c9 -9 20 -13 24 -9 4 4 1 11 -7 16 -25 16 -35 11 -17 -7z" />
    <path d="M420 980 c0 -5 4 -10 9 -10 6 0 13 5 16 10 l6 10 -15 0 c-9 0 -16 -4
-16 -10z" />
    <path d="M1110 878 c0 -57 -3 -154 -7 -215 l-6 -113 14 0 14 0 -3 206 -3 207
36 -28 c20 -15 38 -25 41 -23 4 5 -71 68 -80 68 -3 0 -6 -46 -6 -102z" />
    <path d="M1175 970 c3 -5 11 -10 16 -10 6 0 7 5 4 10 -3 6 -11 10 -16 10 -6 0
-7 -4 -4 -10z" />
    <path d="M1320 960 c0 -5 7 -10 16 -10 l15 0 -6 10 c-3 6 -10 10 -16 10 -5 0
-9 -4 -9 -10z" />
    <path d="M1275 950 c3 -5 10 -10 16 -10 5 0 9 5 9 10 0 6 -7 10 -16 10 l-15 0
6 -10z" />
    <path d="M365 939 c-11 -17 0 -20 21 -4 l19 14 -17 1 c-9 0 -20 -5 -23 -11z" />
    <path d="M1216 935 c4 -8 12 -15 20 -15 8 0 14 -4 14 -10 0 -5 8 -10 18 -10
l17 0 -30 25 c-35 28 -47 31 -39 10z" />
    <path d="M1323 913 c9 -9 19 -14 23 -11 10 10 -6 28 -24 28 l-16 0 17 -17z" />
    <path d="M1370 920 c0 -5 7 -10 16 -10 l15 0 -6 10 c-3 6 -10 10 -16 10 -5 0
-9 -4 -9 -10z" />
    <path d="M1235 875 c32 -26 45 -31 45 -16 0 9 -55 41 -69 41 -3 0 8 -11 24
-25z" />
    <path d="M1290 879 c0 -6 9 -13 19 -16 11 -3 22 -11 25 -19 3 -8 13 -14 23
-14 l18 1 -35 29 c-38 32 -50 36 -50 19z" />
    <path d="M1365 880 c3 -5 10 -10 16 -10 5 0 9 5 9 10 0 6 -7 10 -16 10 l-15 0
6 -10z" />
    <path d="M1405 850 c3 -5 10 -10 16 -10 5 0 9 5 9 10 0 6 -7 10 -16 10 l-15 0
6 -10z" />
    <path d="M1295 830 c3 -5 10 -10 16 -10 5 0 9 5 9 10 0 6 -7 10 -16 10 l-15 0
6 -10z" />
    <path d="M1490 830 c0 -5 7 -10 16 -10 l15 0 -6 10 c-3 6 -10 10 -16 10 -5 0
-9 -4 -9 -10z" />
    <path d="M1445 820 c3 -5 10 -10 16 -10 5 0 9 5 9 10 0 6 -7 10 -16 10 l-15 0
6 -10z" />
    <path d="M1380 810 c0 -5 6 -10 14 -10 8 0 16 -7 20 -15 3 -8 13 -15 23 -15
l18 1 -30 24 c-32 27 -45 31 -45 15z" />
    <path d="M1335 800 c3 -5 10 -10 16 -10 5 0 9 5 9 10 0 6 -7 10 -16 10 l-15 0
6 -10z" />
    <path d="M1485 790 c3 -5 10 -10 16 -10 5 0 9 5 9 10 0 6 -7 10 -16 10 l-15 0
6 -10z" />
    <path d="M700 770 c0 -5 5 -10 10 -10 6 0 10 5 10 10 0 6 -4 10 -10 10 -5 0
-10 -4 -10 -10z" />
    <path d="M820 665 l0 -115 13 0 12 0 -3 115 -3 115 -10 0 -9 0 0 -115z" />
    <path d="M1383 763 c9 -9 19 -14 23 -11 10 10 -6 28 -24 28 l-16 0 17 -17z" />
    <path d="M1525 760 c3 -5 10 -10 16 -10 5 0 9 5 9 10 0 6 -7 10 -16 10 l-15 0
6 -10z" />
    <path d="M1500 720 c0 -5 7 -10 16 -10 l15 0 -6 10 c-3 6 -10 10 -16 10 -5 0
-9 -4 -9 -10z" />
    <path d="M1455 710 c3 -5 10 -10 16 -10 5 0 9 5 9 10 0 6 -7 10 -16 10 l-15 0
6 -10z" />
    <path d="M1540 690 c0 -5 7 -10 16 -10 l15 0 -6 10 c-3 6 -10 10 -16 10 -5 0
-9 -4 -9 -10z" />
    <path d="M1505 670 c3 -5 10 -10 16 -10 5 0 9 5 9 10 0 6 -7 10 -16 10 l-15 0
6 -10z" />
    <path d="M1545 640 c3 -5 10 -10 16 -10 5 0 9 5 9 10 0 6 -7 10 -16 10 l-15 0
6 -10z" />
    <path d="M827 513 c-4 -3 -7 -17 -7 -30 l0 -23 13 0 12 0 0 30 c0 30 -5 36
-18 23z" />
    <path d="M955 490 l0 -30 13 0 12 0 0 30 0 30 -12 0 -13 0 0 -30z" />
    <path d="M1100 490 l0 -30 13 0 12 0 0 30 0 30 -12 0 -13 0 0 -30z" />
    <path d="M1730 460 c0 -5 5 -10 10 -10 6 0 10 5 10 10 0 6 -4 10 -10 10 -5 0
-10 -4 -10 -10z" />
    <path d="M1100 328 l0 -102 9 10 c5 5 11 51 13 102 l3 92 -12 0 -13 0 0 -102z" />
  </g>
  <g transform="translate(0.000000,192.000000) scale(0.100000,-0.100000)" fill="#24727b" stroke="none">
    <path d="M483 1173 l-123 -96 0 -74 0 -73 9 0 c5 0 23 11 39 25 17 14 33 25
36 25 3 0 6 -12 6 -27 l0 -27 8 9 c5 6 26 51 47 100 22 50 49 110 62 134 13
24 23 49 23 54 0 6 7 19 17 29 37 41 -9 12 -124 -79z" />
  </g>
  <g transform="translate(0.000000,192.000000) scale(0.100000,-0.100000)" fill="#1523ee" stroke="none">
    <path d="M1390 878 c1 -18 139 -122 163 -122 41 -2 26 24 -46 78 -71 53 -117
71 -117 44z" />
    <path d="M1360 803 l0 -19 95 -72 c52 -39 101 -72 110 -72 l15 0 0 18 0 17
-92 69 c-50 38 -100 71 -110 74 l-18 4 0 -19z" />
    <path d="M1237 543 c-4 -3 -7 -12 -7 -20 l0 -13 200 0 200 0 0 20 0 20 -193 0
c-107 0 -197 -3 -200 -7z" />
    <path d="M1197 453 c-4 -3 -7 -12 -7 -20 l0 -13 280 0 280 0 0 20 0 20 -273 0
c-151 0 -277 -3 -280 -7z" />
  </g>
  <g transform="translate(0.000000,192.000000) scale(0.100000,-0.100000)" fill="#dde1ee" stroke="none">
    <path d="M990 1422 l0 -209 20 -18 c11 -10 23 -15 26 -12 4 4 -1 9 -10 13
l-16 6 0 208 0 209 -10 6 -10 6 0 -209z" />
    <path d="M746 1381 c-3 -5 5 -8 19 -8 14 0 22 3 19 8 -3 5 -11 9 -19 9 -8 0
-16 -4 -19 -9z" />
    <path d="M805 1350 c3 -5 11 -10 16 -10 6 0 7 5 4 10 -3 6 -11 10 -16 10 -6 0
-7 -4 -4 -10z" />
    <path d="M1085 1350 l-6 -10 15 6 c18 7 21 14 7 14 -6 0 -13 -4 -16 -10z" />
    <path d="M845 1320 c3 -5 11 -10 16 -10 6 0 7 5 4 10 -3 6 -11 10 -16 10 -6 0
-7 -4 -4 -10z" />
    <path d="M655 1310 c-3 -5 -2 -10 4 -10 5 0 13 5 16 10 3 6 2 10 -4 10 -5 0
-13 -4 -16 -10z" />
    <path d="M810 1300 c14 -11 30 -20 35 -20 6 0 -1 9 -15 20 -14 11 -29 20 -35
20 -5 0 1 -9 15 -20z" />
    <path d="M885 1290 c3 -5 11 -10 16 -10 6 0 7 5 4 10 -3 6 -11 10 -16 10 -6 0
-7 -4 -4 -10z" />
    <path d="M805 1245 c17 -13 35 -24 40 -24 6 0 -3 11 -20 24 -16 14 -34 25 -40
25 -5 0 4 -11 20 -25z" />
    <path d="M870 1255 c7 -8 17 -15 22 -15 l10 0 -12 15 c-7 8 -17 15 -22 15
l-10 0 12 -15z" />
    <path d="M565 1240 c-3 -5 -2 -10 4 -10 5 0 13 5 16 10 3 6 2 10 -4 10 -5 0
-13 -4 -16 -10z" />
    <path d="M915 1220 c3 -5 11 -10 16 -10 6 0 7 5 4 10 -3 6 -11 10 -16 10 -6 0
-7 -4 -4 -10z" />
    <path d="M715 1210 c-3 -5 -2 -10 4 -10 5 0 13 5 16 10 3 6 2 10 -4 10 -5 0
-13 -4 -16 -10z" />
    <path d="M515 1200 c-3 -5 -2 -10 4 -10 5 0 13 5 16 10 3 6 2 10 -4 10 -5 0
-13 -4 -16 -10z" />
    <path d="M805 1200 c3 -5 11 -10 16 -10 6 0 7 5 4 10 -3 6 -11 10 -16 10 -6 0
-7 -4 -4 -10z" />
    <path d="M865 1200 c3 -5 11 -10 16 -10 6 0 7 5 4 10 -3 6 -11 10 -16 10 -6 0
-7 -4 -4 -10z" />
    <path d="M960 1185 c7 -9 15 -13 17 -11 7 7 -7 26 -19 26 l-10 0 12 -15z" />
    <path d="M665 1170 c-3 -5 -2 -10 4 -10 5 0 13 5 16 10 3 6 2 10 -4 10 -5 0
-13 -4 -16 -10z" />
    <path d="M845 1170 c3 -5 11 -10 16 -10 6 0 7 5 4 10 -3 6 -11 10 -16 10 -6 0
-7 -4 -4 -10z" />
    <path d="M465 1160 c-3 -5 -2 -10 4 -10 5 0 13 5 16 10 3 6 2 10 -4 10 -5 0
-13 -4 -16 -10z" />
    <path d="M990 1155 l0 -14 15 5 c8 4 12 10 9 15 -8 14 -24 10 -24 -6z" />
    <path d="M1055 1160 c3 -5 11 -10 16 -10 6 0 7 5 4 10 -3 6 -11 10 -16 10 -6
0 -7 -4 -4 -10z" />
    <path d="M940 1145 c7 -8 17 -15 22 -15 l10 0 -12 15 c-7 8 -17 15 -22 15
l-10 0 12 -15z" />
    <path d="M425 1130 c-3 -5 -2 -10 4 -10 5 0 13 5 16 10 3 6 2 10 -4 10 -5 0
-13 -4 -16 -10z" />
    <path d="M615 1130 c-3 -5 -2 -10 4 -10 5 0 13 5 16 10 3 6 2 10 -4 10 -5 0
-13 -4 -16 -10z" />
    <path d="M1035 1130 c3 -5 11 -10 16 -10 6 0 7 5 4 10 -3 6 -11 10 -16 10 -6
0 -7 -4 -4 -10z" />
    <path d="M915 1120 c3 -5 11 -10 16 -10 6 0 7 5 4 10 -3 6 -11 10 -16 10 -6 0
-7 -4 -4 -10z" />
    <path d="M575 1100 c-3 -5 -2 -10 4 -10 5 0 13 5 16 10 3 6 2 10 -4 10 -5 0
-13 -4 -16 -10z" />
    <path d="M1135 1100 c3 -5 11 -10 16 -10 6 0 7 5 4 10 -3 6 -11 10 -16 10 -6
0 -7 -4 -4 -10z" />
    <path d="M1110 1080 c0 -5 5 -10 11 -10 5 0 7 5 4 10 -3 6 -8 10 -11 10 -2 0
-4 -4 -4 -10z" />
    <path d="M1175 1070 c3 -5 11 -10 16 -10 6 0 7 5 4 10 -3 6 -11 10 -16 10 -6
0 -7 -4 -4 -10z" />
    <path d="M992 803 l3 -258 48 -3 47 -3 0 13 0 14 -40 -4 -41 -4 3 251 3 251
-13 0 -12 0 2 -257z" />
    <path d="M1145 1050 c3 -5 11 -10 16 -10 6 0 7 5 4 10 -3 6 -11 10 -16 10 -6
0 -7 -4 -4 -10z" />
    <path d="M1215 1040 c3 -5 11 -10 16 -10 6 0 7 5 4 10 -3 6 -11 10 -16 10 -6
0 -7 -4 -4 -10z" />
    <path d="M1035 1030 c3 -5 11 -10 16 -10 6 0 7 5 4 10 -3 6 -11 10 -16 10 -6
0 -7 -4 -4 -10z" />
    <path d="M1185 1020 c3 -5 11 -10 16 -10 6 0 7 5 4 10 -3 6 -11 10 -16 10 -6
0 -7 -4 -4 -10z" />
    <path d="M1250 1010 c0 -5 -7 -10 -16 -10 l-16 0 12 -15 c7 -8 16 -15 21 -15
5 0 6 7 3 15 l-6 15 17 0 16 0 -6 10 c-3 6 -10 10 -16 10 -5 0 -9 -4 -9 -10z" />
    <path d="M436 991 c-3 -5 1 -11 9 -15 8 -3 15 -1 15 4 0 13 -18 22 -24 11z" />
    <path d="M1145 990 c3 -5 11 -10 16 -10 6 0 7 5 4 10 -3 6 -11 10 -16 10 -6 0
-7 -4 -4 -10z" />
    <path d="M1290 980 c0 -5 7 -10 16 -10 l15 0 -6 10 c-3 6 -10 10 -16 10 -5 0
-9 -4 -9 -10z" />
    <path d="M1185 960 c3 -5 11 -10 16 -10 6 0 7 5 4 10 -3 6 -11 10 -16 10 -6 0
-7 -4 -4 -10z" />
    <path d="M385 950 c-3 -5 -2 -10 4 -10 5 0 13 5 16 10 3 6 2 10 -4 10 -5 0
-13 -4 -16 -10z" />
    <path d="M1330 950 c0 -5 -8 -10 -17 -10 l-17 0 13 -12 14 -13 4 13 c3 6 11
12 19 12 9 0 12 5 9 10 -3 6 -10 10 -16 10 -5 0 -9 -4 -9 -10z" />
    <path d="M1205 900 c3 -5 10 -10 16 -10 5 0 9 5 9 10 0 6 -7 10 -16 10 l-15 0
6 -10z" />
    <path d="M1260 900 c0 -5 7 -10 16 -10 l15 0 -6 10 c-3 6 -10 10 -16 10 -5 0
-9 -4 -9 -10z" />
    <path d="M1353 893 c9 -9 19 -14 23 -11 10 10 -6 28 -24 28 l-16 0 17 -17z" />
    <path d="M1410 890 c0 -5 7 -10 16 -10 l15 0 -6 10 c-3 6 -10 10 -16 10 -5 0
-9 -4 -9 -10z" />
    <path d="M1395 860 c3 -5 10 -10 16 -10 5 0 9 5 9 10 0 6 -7 10 -16 10 l-15 0
6 -10z" />
    <path d="M1455 860 c3 -5 11 -10 16 -10 6 0 7 5 4 10 -3 6 -11 10 -16 10 -6 0
-7 -4 -4 -10z" />
    <path d="M1285 840 c3 -5 10 -10 16 -10 5 0 9 5 9 10 0 6 -7 10 -16 10 l-15 0
6 -10z" />
    <path d="M1435 830 c3 -5 11 -10 16 -10 6 0 7 5 4 10 -3 6 -11 10 -16 10 -6 0
-7 -4 -4 -10z" />
    <path d="M1325 810 c3 -5 10 -10 16 -10 5 0 9 5 9 10 0 6 -7 10 -16 10 l-15 0
6 -10z" />
    <path d="M1395 800 c3 -5 11 -10 16 -10 6 0 7 5 4 10 -3 6 -11 10 -16 10 -6 0
-7 -4 -4 -10z" />
    <path d="M1475 800 c3 -5 11 -10 16 -10 6 0 7 5 4 10 -3 6 -11 10 -16 10 -6 0
-7 -4 -4 -10z" />
    <path d="M1535 800 c3 -5 11 -10 16 -10 6 0 7 5 4 10 -3 6 -11 10 -16 10 -6 0
-7 -4 -4 -10z" />
    <path d="M1365 780 c3 -5 11 -10 16 -10 6 0 7 5 4 10 -3 6 -11 10 -16 10 -6 0
-7 -4 -4 -10z" />
    <path d="M708 774 c-5 -4 -8 -54 -8 -111 l0 -105 -80 4 -80 3 0 -12 0 -13 85
0 86 0 5 13 c8 21 0 230 -8 221z" />
    <path d="M1435 770 c3 -5 11 -10 16 -10 6 0 7 5 4 10 -3 6 -11 10 -16 10 -6 0
-7 -4 -4 -10z" />
    <path d="M1515 770 c3 -5 11 -10 16 -10 6 0 7 5 4 10 -3 6 -11 10 -16 10 -6 0
-7 -4 -4 -10z" />
    <path d="M1410 745 c7 -8 17 -15 22 -15 l10 0 -12 15 c-7 8 -17 15 -22 15
l-10 0 12 -15z" />
    <path d="M1475 740 c3 -5 11 -10 16 -10 6 0 7 5 4 10 -3 6 -11 10 -16 10 -6 0
-7 -4 -4 -10z" />
    <path d="M1515 710 c3 -5 11 -10 16 -10 6 0 7 5 4 10 -3 6 -11 10 -16 10 -6 0
-7 -4 -4 -10z" />
    <path d="M1480 696 c0 -2 19 -18 42 -35 39 -29 58 -32 58 -10 0 6 -5 7 -10 4
-6 -4 -26 5 -45 19 -32 25 -45 31 -45 22z" />
    <path d="M1555 680 c3 -5 11 -10 16 -10 6 0 7 5 4 10 -3 6 -11 10 -16 10 -6 0
-7 -4 -4 -10z" />
    <path d="M1100 553 l0 -13 261 0 261 0 -6 -15 c-3 -8 -1 -15 5 -15 6 0 9 10 7
23 l-3 22 -263 5 -262 5 0 -12z" />
    <path d="M1734 445 c0 -14 4 -25 9 -25 10 0 9 38 -2 44 -5 3 -8 -5 -7 -19z" />
  </g>
  <g transform="translate(0.000000,192.000000) scale(0.100000,-0.100000)" fill="#1832d9" stroke="none">
    <path d="M1242 1004 c-12 -13 -8 -18 11 -15 5 1 6 -3 3 -8 -3 -5 26 -32 64
-60 l70 -50 21 8 22 8 -79 60 c-43 32 -83 62 -89 65 -5 3 -16 0 -23 -8z" />
    <path d="M1209 924 l-13 -16 14 -8 c8 -5 18 -6 24 -3 5 3 6 2 3 -4 l-6 -10 64
-47 65 -48 15 15 14 15 -72 54 c-40 30 -77 57 -83 61 l-12 7 -13 -16z" />
    <path d="M1405 860 c3 -5 11 -10 16 -10 6 0 7 5 4 10 -3 6 -11 10 -16 10 -6 0
-7 -4 -4 -10z" />
    <path d="M1385 770 c3 -5 11 -10 16 -10 6 0 7 5 4 10 -3 6 -11 10 -16 10 -6 0
-7 -4 -4 -10z" />
    <path d="M1102 692 c-1 -7 -6 -10 -12 -7 l-10 6 0 -70 0 -71 -32 0 c-17 0 -28
-3 -25 -7 4 -3 2 -12 -4 -20 l-11 -13 36 0 37 0 -3 -22 -3 -23 -36 -3 -37 -3
-17 -20 -18 -19 56 0 57 0 0 -95 0 -95 15 0 15 0 0 95 0 95 51 0 50 0 -6 9
c-3 5 0 13 7 18 l13 8 -55 5 -55 5 -3 23 -3 22 72 0 c40 0 69 3 66 7 -4 3 -2
12 4 20 l11 13 -75 0 -76 0 -4 78 c-1 42 -4 71 -5 64z" />
  </g>
  <g transform="translate(0.000000,192.000000) scale(0.100000,-0.100000)" fill="#c9cfe8" stroke="none">
    <path d="M970 1619 c0 -5 5 -7 10 -4 6 3 10 8 10 11 0 2 -4 4 -10 4 -5 0 -10
-5 -10 -11z" />
    <path d="M695 1340 c-3 -5 -2 -10 4 -10 5 0 13 5 16 10 3 6 2 10 -4 10 -5 0
-13 -4 -16 -10z" />
    <path d="M785 1320 c3 -5 11 -10 16 -10 6 0 7 5 4 10 -3 6 -11 10 -16 10 -6 0
-7 -4 -4 -10z" />
    <path d="M855 1310 c3 -5 11 -10 16 -10 6 0 7 5 4 10 -3 6 -11 10 -16 10 -6 0
-7 -4 -4 -10z" />
    <path d="M895 1280 c3 -5 11 -10 16 -10 6 0 7 5 4 10 -3 6 -11 10 -16 10 -6 0
-7 -4 -4 -10z" />
    <path d="M605 1270 c-3 -5 -2 -10 4 -10 5 0 13 5 16 10 3 6 2 10 -4 10 -5 0
-13 -4 -16 -10z" />
    <path d="M935 1250 c3 -5 11 -10 16 -10 6 0 7 5 4 10 -3 6 -11 10 -16 10 -6 0
-7 -4 -4 -10z" />
    <path d="M555 1230 l-6 -10 15 6 c18 7 21 14 7 14 -6 0 -13 -4 -16 -10z" />
    <path d="M905 1230 c3 -5 11 -10 16 -10 6 0 7 5 4 10 -3 6 -11 10 -16 10 -6 0
-7 -4 -4 -10z" />
    <path d="M795 1210 c3 -5 11 -10 16 -10 6 0 7 5 4 10 -3 6 -11 10 -16 10 -6 0
-7 -4 -4 -10z" />
    <path d="M945 1200 c3 -5 11 -10 16 -10 6 0 7 5 4 10 -3 6 -11 10 -16 10 -6 0
-7 -4 -4 -10z" />
    <path d="M505 1190 l-6 -10 15 6 c18 7 21 14 7 14 -6 0 -13 -4 -16 -10z" />
    <path d="M675 1180 c-3 -5 -2 -10 4 -10 5 0 13 5 16 10 3 6 2 10 -4 10 -5 0
-13 -4 -16 -10z" />
    <path d="M835 1180 c3 -5 11 -10 16 -10 6 0 7 5 4 10 -3 6 -11 10 -16 10 -6 0
-7 -4 -4 -10z" />
    <path d="M905 1170 c3 -5 11 -10 16 -10 6 0 7 5 4 10 -3 6 -11 10 -16 10 -6 0
-7 -4 -4 -10z" />
    <path d="M875 1150 c3 -5 11 -10 16 -10 6 0 7 5 4 10 -3 6 -11 10 -16 10 -6 0
-7 -4 -4 -10z" />
    <path d="M625 1140 c-3 -5 -2 -10 4 -10 5 0 13 5 16 10 3 6 2 10 -4 10 -5 0
-13 -4 -16 -10z" />
    <path d="M590 1110 l-15 -10 12 0 c6 0 15 5 18 10 8 12 4 12 -15 0z" />
    <path d="M990 1112 c0 -12 19 -26 26 -19 2 2 -2 10 -11 17 l-15 12 0 -10z" />
    <path d="M1070 1105 c7 -9 15 -13 17 -11 7 7 -7 26 -19 26 l-10 0 12 -15z" />
    <path d="M375 1090 c-3 -5 -2 -10 4 -10 5 0 13 5 16 10 3 6 2 10 -4 10 -5 0
-13 -4 -16 -10z" />
    <path d="M960 1085 c7 -9 15 -13 17 -11 7 7 -7 26 -19 26 l-10 0 12 -15z" />
    <path d="M1035 1070 c3 -5 11 -10 16 -10 6 0 7 5 4 10 -3 6 -11 10 -16 10 -6
0 -7 -4 -4 -10z" />
    <path d="M544 810 c0 -146 2 -205 3 -132 2 72 2 192 0 265 -1 72 -3 13 -3
-133z" />
    <path d="M1135 1060 c3 -5 11 -10 16 -10 6 0 7 5 4 10 -3 6 -11 10 -16 10 -6
0 -7 -4 -4 -10z" />
    <path d="M1110 1020 c0 -5 5 -10 11 -10 5 0 7 5 4 10 -3 6 -8 10 -11 10 -2 0
-4 -4 -4 -10z" />
    <path d="M1215 1000 c3 -5 11 -10 16 -10 6 0 7 5 4 10 -3 6 -11 10 -16 10 -6
0 -7 -4 -4 -10z" />
    <path d="M1155 980 c3 -5 11 -10 16 -10 6 0 7 5 4 10 -3 6 -11 10 -16 10 -6 0
-7 -4 -4 -10z" />
    <path d="M1115 970 c3 -5 11 -10 16 -10 6 0 7 5 4 10 -3 6 -11 10 -16 10 -6 0
-7 -4 -4 -10z" />
    <path d="M395 960 c-3 -5 -2 -10 4 -10 5 0 13 5 16 10 3 6 2 10 -4 10 -5 0
-13 -4 -16 -10z" />
    <path d="M1265 960 c3 -5 11 -10 16 -10 6 0 7 5 4 10 -3 6 -11 10 -16 10 -6 0
-7 -4 -4 -10z" />
    <path d="M1195 950 c3 -5 11 -10 16 -10 6 0 7 5 4 10 -3 6 -11 10 -16 10 -6 0
-7 -4 -4 -10z" />
    <path d="M1155 940 c3 -5 11 -10 16 -10 6 0 7 5 4 10 -3 6 -11 10 -16 10 -6 0
-7 -4 -4 -10z" />
    <path d="M1235 920 c3 -5 11 -10 16 -10 6 0 7 5 4 10 -3 6 -11 10 -16 10 -6 0
-7 -4 -4 -10z" />
    <path d="M1195 910 c3 -5 11 -10 16 -10 6 0 7 5 4 10 -3 6 -11 10 -16 10 -6 0
-7 -4 -4 -10z" />
    <path d="M1275 890 c3 -5 11 -10 16 -10 6 0 7 5 4 10 -3 6 -11 10 -16 10 -6 0
-7 -4 -4 -10z" />
    <path d="M1235 880 c3 -5 11 -10 16 -10 6 0 7 5 4 10 -3 6 -11 10 -16 10 -6 0
-7 -4 -4 -10z" />
    <path d="M1385 870 c3 -5 11 -10 16 -10 6 0 7 5 4 10 -3 6 -11 10 -16 10 -6 0
-7 -4 -4 -10z" />
    <path d="M1315 860 c3 -5 11 -10 16 -10 6 0 7 5 4 10 -3 6 -11 10 -16 10 -6 0
-7 -4 -4 -10z" />
    <path d="M1275 850 c3 -5 11 -10 16 -10 6 0 7 5 4 10 -3 6 -11 10 -16 10 -6 0
-7 -4 -4 -10z" />
    <path d="M1465 850 c3 -5 11 -10 16 -10 6 0 7 5 4 10 -3 6 -11 10 -16 10 -6 0
-7 -4 -4 -10z" />
    <path d="M1425 840 c3 -5 11 -10 16 -10 6 0 7 5 4 10 -3 6 -11 10 -16 10 -6 0
-7 -4 -4 -10z" />
    <path d="M1355 830 c3 -5 11 -10 16 -10 6 0 7 5 4 10 -3 6 -11 10 -16 10 -6 0
-7 -4 -4 -10z" />
    <path d="M1315 820 c3 -5 11 -10 16 -10 6 0 7 5 4 10 -3 6 -11 10 -16 10 -6 0
-7 -4 -4 -10z" />
    <path d="M1505 820 c3 -5 11 -10 16 -10 6 0 7 5 4 10 -3 6 -11 10 -16 10 -6 0
-7 -4 -4 -10z" />
    <path d="M1465 810 c3 -5 11 -10 16 -10 6 0 7 5 4 10 -3 6 -11 10 -16 10 -6 0
-7 -4 -4 -10z" />
    <path d="M1554 785 l19 -14 -16 -7 c-9 -3 -14 -10 -11 -15 8 -14 21 -11 28 7
7 18 -10 44 -28 44 -6 0 -2 -7 8 -15z" />
    <path d="M1505 780 c3 -5 11 -10 16 -10 6 0 7 5 4 10 -3 6 -11 10 -16 10 -6 0
-7 -4 -4 -10z" />
    <path d="M1445 720 c3 -5 11 -10 16 -10 6 0 7 5 4 10 -3 6 -11 10 -16 10 -6 0
-7 -4 -4 -10z" />
    <path d="M990 562 c0 -12 19 -26 26 -19 2 2 -2 10 -11 17 l-15 12 0 -10z" />
    <path d="M993 465 c2 -5 23 -10 47 -10 24 0 45 5 47 10 l3 10 -50 0 -50 0 3
-10z" />
    <path d="M830 460 l0 -10 70 0 70 0 0 10 0 10 -70 0 -70 0 0 -10z" />
    <path d="M1110 460 l0 -10 316 0 316 0 -7 -17 -6 -18 11 11 c6 6 8 18 4 27
l-6 17 -314 0 -314 0 0 -10z" />
    <path d="M1080 240 c0 -5 5 -10 11 -10 5 0 7 5 4 10 -3 6 -8 10 -11 10 -2 0
-4 -4 -4 -10z" />
  </g>
  <g transform="translate(0.000000,192.000000) scale(0.100000,-0.100000)" fill="#6d7bdd" stroke="none">
    <path d="M1200 1056 c0 -2 8 -10 18 -17 l17 -14 -14 18 c-13 16 -21 21 -21 13z" />
    <path d="M1240 1026 c0 -2 8 -10 18 -17 l17 -14 -14 18 c-13 16 -21 21 -21 13z" />
    <path d="M1280 996 c0 -2 8 -10 18 -17 l17 -14 -14 18 c-13 16 -21 21 -21 13z" />
    <path d="M1130 966 c0 -2 8 -10 18 -17 l17 -14 -14 18 c-13 16 -21 21 -21 13z" />
    <path d="M1320 966 c0 -2 8 -10 18 -17 l17 -14 -14 18 c-13 16 -21 21 -21 13z" />
    <path d="M1170 936 c0 -2 8 -10 18 -17 l17 -14 -14 18 c-13 16 -21 21 -21 13z" />
    <path d="M1360 936 c0 -2 8 -10 18 -17 l17 -14 -14 18 c-13 16 -21 21 -21 13z" />
    <path d="M1320 926 c0 -2 8 -10 18 -17 l17 -14 -14 18 c-13 16 -21 21 -21 13z" />
    <path d="M1250 916 c0 -2 8 -10 18 -17 l17 -14 -14 18 c-13 16 -21 21 -21 13z" />
    <path d="M1400 906 c0 -2 8 -10 18 -17 l17 -14 -14 18 c-13 16 -21 21 -21 13z" />
    <path d="M1360 896 c0 -2 8 -10 18 -17 l17 -14 -14 18 c-13 16 -21 21 -21 13z" />
    <path d="M1290 886 c0 -2 8 -10 18 -17 l17 -14 -14 18 c-13 16 -21 21 -21 13z" />
    <path d="M1084 715 c0 -93 2 -133 3 -88 2 45 2 122 0 170 -1 48 -3 12 -3 -82z" />
    <path d="M1440 876 c0 -2 8 -10 18 -17 l17 -14 -14 18 c-13 16 -21 21 -21 13z" />
    <path d="M1400 866 c0 -2 7 -9 15 -16 l15 -12 0 10 c0 5 -7 12 -15 16 -8 3
-15 4 -15 2z" />
    <path d="M1330 856 c0 -2 8 -10 18 -17 l17 -14 -14 18 c-13 16 -21 21 -21 13z" />
    <path d="M1290 846 c0 -2 8 -10 18 -17 l17 -14 -14 18 c-13 16 -21 21 -21 13z" />
    <path d="M1480 846 c0 -2 8 -10 18 -17 l17 -14 -14 18 c-13 16 -21 21 -21 13z" />
    <path d="M1440 836 c0 -2 8 -10 18 -17 l17 -14 -14 18 c-13 16 -21 21 -21 13z" />
    <path d="M1370 826 c0 -2 8 -10 18 -17 l17 -14 -14 18 c-13 16 -21 21 -21 13z" />
    <path d="M1520 816 c0 -2 8 -10 18 -17 l17 -14 -14 18 c-13 16 -21 21 -21 13z" />
    <path d="M1480 806 c0 -2 8 -10 18 -17 l17 -14 -14 18 c-13 16 -21 21 -21 13z" />
    <path d="M1410 791 c0 -5 7 -12 16 -15 l17 -6 -13 15 c-14 17 -20 19 -20 6z" />
    <path d="M1520 776 c0 -2 8 -10 18 -17 l17 -14 -14 18 c-13 16 -21 21 -21 13z" />
    <path d="M1450 761 c0 -5 7 -12 16 -15 l17 -6 -13 15 c-14 17 -20 19 -20 6z" />
    <path d="M1420 746 c0 -2 7 -9 15 -16 l15 -12 0 10 c0 5 -7 12 -15 16 -8 3
-15 4 -15 2z" />
    <path d="M1490 732 c0 -4 10 -13 23 -21 l22 -14 -19 22 c-20 22 -26 25 -26 13z" />
    <path d="M1460 716 c0 -2 7 -9 15 -16 l15 -12 0 10 c0 5 -7 12 -15 16 -8 3
-15 4 -15 2z" />
    <path d="M1553 683 c9 -11 17 -23 17 -27 0 -5 -8 -5 -17 -1 l-18 6 12 -12 c13
-13 33 -4 33 14 0 7 -10 18 -22 26 l-23 14 18 -20z" />
    <path d="M1500 686 c0 -2 7 -9 15 -16 l15 -12 0 10 c0 5 -7 12 -15 16 -8 3
-15 4 -15 2z" />
    <path d="M1078 490 c2 -16 6 -30 8 -30 2 0 4 14 4 30 0 17 -4 30 -8 30 -5 0
-7 -13 -4 -30z" />
    <path d="M973 423 l107 -4 0 -89 c0 -49 3 -91 8 -93 4 -3 6 39 4 94 l-3 99
-112 -2 -112 -2 108 -3z" />
    <path d="M1268 423 c90 -2 234 -2 320 0 86 1 13 3 -163 3 -176 0 -247 -2 -157
-3z" />
  </g>
  <g transform="translate(0.000000,192.000000) scale(0.100000,-0.100000)" fill="#708fc2" stroke="none">
    <path d="M975 1618 c-8 -22 -10 -388 -3 -388 4 0 9 90 10 200 2 110 2 200 0
200 -1 0 -5 -6 -7 -12z" />
    <path d="M1078 1249 c-2 -56 0 -103 5 -106 4 -2 7 43 7 101 0 58 -2 106 -4
106 -3 0 -6 -45 -8 -101z" />
    <path d="M870 1306 c0 -2 8 -10 18 -17 l17 -14 -14 18 c-13 16 -21 21 -21 13z" />
    <path d="M910 1276 c0 -2 8 -10 18 -17 l17 -14 -14 18 c-13 16 -21 21 -21 13z" />
    <path d="M880 1256 c0 -2 8 -10 18 -17 l17 -14 -14 18 c-13 16 -21 21 -21 13z" />
    <path d="M745 1230 l-6 -10 15 6 c18 7 21 14 7 14 -6 0 -13 -4 -16 -10z" />
    <path d="M920 1226 c0 -2 7 -9 15 -16 l15 -12 0 10 c0 5 -7 12 -15 16 -8 3
-15 4 -15 2z" />
    <path d="M990 1216 c0 -2 8 -10 18 -17 l17 -14 -14 18 c-13 16 -21 21 -21 13z" />
    <path d="M810 1206 c0 -2 8 -10 18 -17 l17 -14 -14 18 c-13 16 -21 21 -21 13z" />
    <path d="M1030 1181 c0 -5 7 -12 16 -15 l17 -6 -13 15 c-14 17 -20 19 -20 6z" />
    <path d="M850 1176 c0 -2 8 -10 18 -17 l17 -14 -14 18 c-13 16 -21 21 -21 13z" />
    <path d="M1000 1166 c0 -2 8 -10 18 -17 l17 -14 -14 18 c-13 16 -21 21 -21 13z" />
    <path d="M890 1146 c0 -2 8 -10 18 -17 l17 -14 -14 18 c-13 16 -21 21 -21 13z" />
    <path d="M1040 1136 c0 -2 8 -10 18 -17 l17 -14 -14 18 c-13 16 -21 21 -21 13z" />
    <path d="M930 1116 c0 -2 8 -10 18 -17 l17 -14 -14 18 c-13 16 -21 21 -21 13z" />
    <path d="M1082 1081 l-2 -33 -17 13 -18 13 17 -19 c10 -10 20 -16 23 -13 4 3
5 21 2 40 l-4 33 -1 -34z" />
    <path d="M1010 1096 c0 -2 8 -10 18 -17 l17 -14 -14 18 c-13 16 -21 21 -21 13z" />
    <path d="M1010 1056 c0 -2 7 -9 15 -16 l15 -12 0 10 c0 5 -7 12 -15 16 -8 3
-15 4 -15 2z" />
    <path d="M1062 1014 l17 -19 4 -65 3 -65 2 72 2 72 -22 12 -23 12 17 -19z" />
    <path d="M450 428 c0 -5 98 -7 218 -6 217 2 192 6 -76 10 -78 2 -142 0 -142
-4z" />
  </g>
  <g transform="translate(0.000000,192.000000) scale(0.100000,-0.100000)" fill="#2b3aeb" stroke="none">
    <path d="M1345 940 c3 -5 11 -10 16 -10 6 0 7 5 4 10 -3 6 -11 10 -16 10 -6 0
-7 -4 -4 -10z" />
    <path d="M1385 910 c3 -5 11 -10 16 -10 6 0 7 5 4 10 -3 6 -11 10 -16 10 -6 0
-7 -4 -4 -10z" />
    <path d="M1340 906 c0 -2 7 -7 16 -10 l15 -6 -6 10 c-6 10 -25 14 -25 6z" />
    <path d="M1425 880 c3 -5 11 -10 16 -10 6 0 7 5 4 10 -3 6 -11 10 -16 10 -6 0
-7 -4 -4 -10z" />
    <path d="M1380 876 c0 -2 7 -7 16 -10 l15 -6 -6 10 c-6 10 -25 14 -25 6z" />
    <path d="M1420 851 c0 -5 7 -12 16 -15 l17 -6 -13 15 c-14 17 -20 19 -20 6z" />
    <path d="M1467 849 c7 -7 15 -10 18 -7 3 3 -2 9 -12 12 l-18 7 12 -12z" />
    <path d="M1310 826 c0 -2 7 -7 16 -10 l15 -6 -6 10 c-6 10 -25 14 -25 6z" />
    <path d="M1507 819 c7 -7 15 -10 18 -7 3 3 -2 9 -12 12 l-18 7 12 -12z" />
    <path d="M1460 816 c0 -2 7 -7 16 -10 l15 -6 -6 10 c-6 10 -25 14 -25 6z" />
    <path d="M1355 790 c3 -5 11 -10 16 -10 6 0 7 5 4 10 -3 6 -11 10 -16 10 -6 0
-7 -4 -4 -10z" />
    <path d="M1405 790 c3 -5 8 -10 11 -10 2 0 4 5 4 10 0 6 -5 10 -11 10 -5 0 -7
-4 -4 -10z" />
    <path d="M1553 786 l18 -14 -16 -10 -17 -9 15 -6 15 -6 5 20 5 19 -21 11 -22
10 18 -15z" />
    <path d="M1500 786 c0 -2 7 -7 16 -10 l15 -6 -6 10 c-6 10 -25 14 -25 6z" />
    <path d="M1390 765 c0 -2 10 -10 23 -16 l22 -12 -14 16 c-13 16 -31 23 -31 12z" />
    <path d="M1445 760 c3 -5 8 -10 11 -10 2 0 4 5 4 10 0 6 -5 10 -11 10 -5 0 -7
-4 -4 -10z" />
    <path d="M1440 731 c0 -5 7 -12 16 -15 l17 -6 -13 15 c-14 17 -20 19 -20 6z" />
    <path d="M1485 730 c3 -5 8 -10 11 -10 2 0 4 5 4 10 0 6 -5 10 -11 10 -5 0 -7
-4 -4 -10z" />
    <path d="M1480 701 c0 -5 7 -12 16 -15 l17 -6 -13 15 c-14 17 -20 19 -20 6z" />
    <path d="M1525 700 c3 -5 11 -10 16 -10 6 0 7 5 4 10 -3 6 -11 10 -16 10 -6 0
-7 -4 -4 -10z" />
    <path d="M1520 671 c0 -5 7 -12 16 -15 l17 -6 -13 15 c-14 17 -20 19 -20 6z" />
    <path d="M1288 543 c61 -2 163 -2 225 0 61 1 11 3 -113 3 -124 0 -174 -2 -112
-3z" />
    <path d="M1268 453 c90 -2 234 -2 320 0 86 1 13 3 -163 3 -176 0 -247 -2 -157
-3z" />
  </g>
  <g transform="translate(0.000000,192.000000) scale(0.100000,-0.100000)" fill="#2f50c7" stroke="none">
    <path d="M1110 1120 c0 -5 5 -10 11 -10 5 0 7 5 4 10 -3 6 -8 10 -11 10 -2 0
-4 -4 -4 -10z" />
    <path d="M1060 1116 c0 -2 7 -7 16 -10 l15 -6 -6 10 c-6 10 -25 14 -25 6z" />
    <path d="M1145 1090 c3 -5 11 -10 16 -10 6 0 7 5 4 10 -3 6 -11 10 -16 10 -6
0 -7 -4 -4 -10z" />
    <path d="M1130 1066 c0 -2 7 -7 16 -10 l15 -6 -6 10 c-6 10 -25 14 -25 6z" />
    <path d="M1185 1060 c3 -5 11 -10 16 -10 6 0 7 5 4 10 -3 6 -11 10 -16 10 -6
0 -7 -4 -4 -10z" />
    <path d="M1171 1036 c21 -20 102 -77 105 -74 4 5 -92 78 -102 78 -4 0 -5 -2
-3 -4z" />
    <path d="M1225 1030 c3 -5 11 -10 16 -10 6 0 7 5 4 10 -3 6 -11 10 -16 10 -6
0 -7 -4 -4 -10z" />
    <path d="M1070 1010 c0 -5 5 -10 11 -10 5 0 7 5 4 10 -3 6 -8 10 -11 10 -2 0
-4 -4 -4 -10z" />
    <path d="M1115 1010 c3 -5 11 -10 16 -10 6 0 7 5 4 10 -3 6 -11 10 -16 10 -6
0 -7 -4 -4 -10z" />
    <path d="M1265 1000 c3 -5 11 -10 16 -10 6 0 7 5 4 10 -3 6 -11 10 -16 10 -6
0 -7 -4 -4 -10z" />
    <path d="M1156 982 c31 -28 93 -72 100 -72 4 0 -17 18 -46 40 -29 22 -56 40
-59 40 -3 0 -1 -4 5 -8z" />
    <path d="M1110 976 c0 -2 7 -7 16 -10 l15 -6 -6 10 c-6 10 -25 14 -25 6z" />
    <path d="M1305 970 c3 -5 11 -10 16 -10 6 0 7 5 4 10 -3 6 -11 10 -16 10 -6 0
-7 -4 -4 -10z" />
    <path d="M1150 946 c0 -2 7 -7 16 -10 l15 -6 -6 10 c-6 10 -25 14 -25 6z" />
    <path d="M1290 945 c0 -2 10 -10 23 -16 l22 -12 -14 16 c-13 16 -31 23 -31 12z" />
    <path d="M1190 916 c0 -2 7 -7 16 -10 l15 -6 -6 10 c-6 10 -25 14 -25 6z" />
    <path d="M1277 889 c7 -7 15 -10 18 -7 3 3 -2 9 -12 12 l-18 7 12 -12z" />
    <path d="M1260 865 c19 -14 36 -25 39 -25 10 0 -53 49 -63 50 -6 0 5 -11 24
-25z" />
    <path d="M995 668 l0 -123 43 -1 42 -1 -40 4 -39 4 -4 120 -3 119 1 -122z" />
    <path d="M825 550 l6 -10 69 0 69 0 6 10 6 10 -81 0 -81 0 6 -10z" />
    <path d="M965 510 c3 -5 8 -10 11 -10 2 0 4 5 4 10 0 6 -5 10 -11 10 -5 0 -7
-4 -4 -10z" />
    <path d="M1073 513 c4 -3 10 -3 14 0 3 4 0 7 -7 7 -7 0 -10 -3 -7 -7z" />
    <path d="M993 470 l4 -15 38 -3 c21 -2 41 0 46 5 l8 8 -40 -3 -41 -4 -10 13
-10 14 5 -15z" />
    <path d="M827 458 c2 -5 35 -8 73 -8 38 0 71 3 73 8 3 4 -30 7 -73 7 -43 0
-76 -3 -73 -7z" />
  </g>
  <g transform="translate(0.000000,192.000000) scale(0.100000,-0.100000)" fill="#5285a1" stroke="none">
    <path d="M691 1334 c-24 -18 -40 -34 -35 -34 5 0 27 16 49 35 22 19 38 34 35
34 -3 0 -25 -16 -49 -35z" />
    <path d="M790 1366 c0 -2 8 -10 18 -17 l17 -14 -14 18 c-13 16 -21 21 -21 13z" />
    <path d="M845 1320 c10 -11 20 -20 23 -20 3 0 -3 9 -13 20 -10 11 -20 20 -23
20 -3 0 3 -9 13 -20z" />
    <path d="M790 1326 c0 -2 8 -10 18 -17 l17 -14 -14 18 c-13 16 -21 21 -21 13z" />
    <path d="M830 1296 c0 -2 8 -10 18 -17 l17 -14 -14 18 c-13 16 -21 21 -21 13z" />
    <path d="M616 1275 c-11 -8 -15 -15 -9 -15 6 0 16 7 23 15 16 19 11 19 -14 0z" />
    <path d="M773 1272 c4 -6 22 -21 39 -34 17 -12 28 -17 25 -10 -4 6 -22 21 -39
34 -17 12 -28 17 -25 10z" />
    <path d="M875 1260 c3 -5 8 -10 11 -10 3 0 2 5 -1 10 -3 6 -8 10 -11 10 -3 0
-2 -4 1 -10z" />
    <path d="M574 1238 l-7 -11 11 7 c12 7 16 16 8 16 -3 0 -8 -5 -12 -12z" />
    <path d="M957 1239 c7 -7 15 -10 18 -7 3 3 -2 9 -12 12 l-18 7 12 -12z" />
    <path d="M770 1236 c0 -2 8 -10 18 -17 l17 -14 -14 18 c-13 16 -21 21 -21 13z" />
    <path d="M915 1230 c3 -5 8 -10 11 -10 3 0 2 5 -1 10 -3 6 -8 10 -11 10 -3 0
-2 -4 1 -10z" />
    <path d="M714 1209 l-19 -22 23 14 c12 8 22 17 22 21 0 12 -6 9 -26 -13z" />
    <path d="M529 1203 l-14 -18 18 14 c9 7 17 15 17 17 0 8 -8 3 -21 -13z" />
    <path d="M850 1216 c0 -2 8 -10 18 -17 l17 -14 -14 18 c-13 16 -21 21 -21 13z" />
    <path d="M664 1168 l-19 -23 23 19 c21 18 27 26 19 26 -2 0 -12 -10 -23 -22z" />
    <path d="M845 1180 c3 -5 8 -10 11 -10 3 0 2 5 -1 10 -3 6 -8 10 -11 10 -3 0
-2 -4 1 -10z" />
    <path d="M890 1186 c0 -2 8 -10 18 -17 l17 -14 -14 18 c-13 16 -21 21 -21 13z" />
    <path d="M476 1165 c-11 -8 -15 -15 -9 -15 6 0 16 7 23 15 16 19 11 19 -14 0z" />
    <path d="M885 1150 c3 -5 8 -10 11 -10 3 0 2 5 -1 10 -3 6 -8 10 -11 10 -3 0
-2 -4 1 -10z" />
    <path d="M619 1133 l-14 -18 18 14 c16 13 21 21 13 21 -2 0 -10 -8 -17 -17z" />
    <path d="M430 1130 l-15 -10 12 0 c6 0 15 5 18 10 8 12 4 12 -15 0z" />
    <path d="M925 1120 c3 -5 8 -10 11 -10 3 0 2 5 -1 10 -3 6 -8 10 -11 10 -3 0
-2 -4 1 -10z" />
    <path d="M569 1093 l-14 -18 18 14 c16 13 21 21 13 21 -2 0 -10 -8 -17 -17z" />
    <path d="M380 1090 l-15 -10 12 0 c6 0 15 5 18 10 8 12 4 12 -15 0z" />
    <path d="M410 968 l-35 -30 38 26 37 27 2 -288 3 -288 2 284 c2 157 0 288 -4
292 -5 4 -24 -6 -43 -23z" />
  </g>
  <g transform="translate(0.000000,192.000000) scale(0.100000,-0.100000)" fill="#4250dd" stroke="none">
    <path d="M1303 973 c4 -3 10 -3 14 0 3 4 0 7 -7 7 -7 0 -10 -3 -7 -7z" />
    <path d="M1260 966 c0 -2 7 -7 16 -10 l15 -6 -6 10 c-6 10 -25 14 -25 6z" />
    <path d="M1343 943 c4 -3 10 -3 14 0 3 4 0 7 -7 7 -7 0 -10 -3 -7 -7z" />
    <path d="M1383 913 c4 -3 10 -3 14 0 3 4 0 7 -7 7 -7 0 -10 -3 -7 -7z" />
    <path d="M1423 883 c4 -3 10 -3 14 0 3 4 0 7 -7 7 -7 0 -10 -3 -7 -7z" />
    <path d="M1317 859 c7 -7 15 -10 18 -7 3 3 -2 9 -12 12 l-18 7 12 -12z" />
    <path d="M1357 829 c7 -7 15 -10 18 -7 3 3 -2 9 -12 12 l-18 7 12 -12z" />
    <path d="M1335 810 c3 -5 8 -10 11 -10 3 0 2 5 -1 10 -3 6 -8 10 -11 10 -3 0
-2 -4 1 -10z" />
    <path d="M1397 799 c7 -7 15 -10 18 -7 3 3 -2 9 -12 12 l-18 7 12 -12z" />
    <path d="M1361 787 c2 -1 13 -9 24 -17 l20 -15 -14 18 c-7 9 -18 17 -24 17 -6
0 -8 -1 -6 -3z" />
    <path d="M1437 769 c7 -7 15 -10 18 -7 3 3 -2 9 -12 12 l-18 7 12 -12z" />
    <path d="M1560 750 c0 -7 3 -10 7 -7 3 4 3 10 0 14 -4 3 -7 0 -7 -7z" />
    <path d="M1477 739 c7 -7 15 -10 18 -7 3 3 -2 9 -12 12 l-18 7 12 -12z" />
    <path d="M1523 703 c4 -3 10 -3 14 0 3 4 0 7 -7 7 -7 0 -10 -3 -7 -7z" />
    <path d="M1563 673 c4 -3 10 -3 14 0 3 4 0 7 -7 7 -7 0 -10 -3 -7 -7z" />
    <path d="M1564 648 l-7 -11 11 7 c7 4 12 9 12 12 0 8 -9 4 -16 -8z" />
    <path d="M1074 548 l-7 -11 11 7 c7 4 12 9 12 12 0 8 -9 4 -16 -8z" />
    <path d="M1128 543 c12 -2 32 -2 45 0 12 2 2 4 -23 4 -25 0 -35 -2 -22 -4z" />
    <path d="M1258 513 c67 -2 177 -2 245 0 67 1 12 3 -123 3 -135 0 -190 -2 -122
-3z" />
  </g>
  <g transform="translate(0.000000,192.000000) scale(0.100000,-0.100000)" fill="#386ba4" stroke="none">
    <path d="M988 1513 c4 -218 8 -239 10 -60 1 97 -1 177 -5 177 -5 0 -7 -53 -5
-117z" />
    <path d="M749 1378 l-14 -10 16 5 c9 3 22 0 28 -6 6 -6 13 -8 17 -5 3 4 -3 11
-13 16 l-19 11 -15 -11z" />
    <path d="M760 1341 c0 -9 30 -24 36 -18 2 1 -6 8 -16 15 -11 7 -20 8 -20 3z" />
    <path d="M815 1340 c3 -5 11 -10 16 -10 6 0 7 5 4 10 -3 6 -11 10 -16 10 -6 0
-7 -4 -4 -10z" />
    <path d="M815 1300 c3 -5 11 -10 16 -10 6 0 7 5 4 10 -3 6 -11 10 -16 10 -6 0
-7 -4 -4 -10z" />
    <path d="M863 1303 c4 -3 10 -3 14 0 3 4 0 7 -7 7 -7 0 -10 -3 -7 -7z" />
    <path d="M760 1280 c0 -5 5 -10 11 -10 5 0 7 5 4 10 -3 6 -8 10 -11 10 -2 0
-4 -4 -4 -10z" />
    <path d="M897 1279 c7 -7 15 -10 18 -7 3 3 -2 9 -12 12 l-18 7 12 -12z" />
    <path d="M855 1270 c3 -5 11 -10 16 -10 6 0 7 5 4 10 -3 6 -11 10 -16 10 -6 0
-7 -4 -4 -10z" />
    <path d="M800 1250 c0 -5 5 -10 11 -10 5 0 7 5 4 10 -3 6 -8 10 -11 10 -2 0
-4 -4 -4 -10z" />
    <path d="M937 1249 c7 -7 15 -10 18 -7 3 3 -2 9 -12 12 l-18 7 12 -12z" />
    <path d="M763 1233 c4 -3 10 -3 14 0 3 4 0 7 -7 7 -7 0 -10 -3 -7 -7z" />
    <path d="M903 1233 c4 -3 10 -3 14 0 3 4 0 7 -7 7 -7 0 -10 -3 -7 -7z" />
    <path d="M730 1219 c0 -5 5 -7 10 -4 6 3 10 8 10 11 0 2 -4 4 -10 4 -5 0 -10
-5 -10 -11z" />
    <path d="M835 1220 c3 -5 11 -10 16 -10 6 0 7 5 4 10 -3 6 -11 10 -16 10 -6 0
-7 -4 -4 -10z" />
    <path d="M790 1216 c0 -2 7 -7 16 -10 l15 -6 -6 10 c-6 10 -25 14 -25 6z" />
    <path d="M940 1211 c0 -5 7 -12 16 -15 l17 -6 -13 15 c-14 17 -20 19 -20 6z" />
    <path d="M875 1190 c3 -5 11 -10 16 -10 6 0 7 5 4 10 -3 6 -11 10 -16 10 -6 0
-7 -4 -4 -10z" />
    <path d="M683 1183 c4 -3 10 -3 14 0 3 4 0 7 -7 7 -7 0 -10 -3 -7 -7z" />
    <path d="M833 1183 c4 -3 10 -3 14 0 3 4 0 7 -7 7 -7 0 -10 -3 -7 -7z" />
    <path d="M913 1163 c4 -3 10 -3 14 0 3 4 0 7 -7 7 -7 0 -10 -3 -7 -7z" />
    <path d="M635 1150 c-3 -5 -2 -10 4 -10 5 0 13 5 16 10 3 6 2 10 -4 10 -5 0
-13 -4 -16 -10z" />
    <path d="M873 1153 c4 -3 10 -3 14 0 3 4 0 7 -7 7 -7 0 -10 -3 -7 -7z" />
    <path d="M913 1123 c4 -3 10 -3 14 0 3 4 0 7 -7 7 -7 0 -10 -3 -7 -7z" />
    <path d="M540 1069 c0 -5 5 -7 10 -4 6 3 10 8 10 11 0 2 -4 4 -10 4 -5 0 -10
-5 -10 -11z" />
    <path d="M710 740 c0 -22 2 -40 4 -40 2 0 6 18 8 40 2 22 0 40 -4 40 -5 0 -8
-18 -8 -40z" />
    <path d="M540 548 c0 -5 28 -7 63 -7 67 1 60 6 -15 11 -27 2 -48 0 -48 -4z" />
  </g>
  <g transform="translate(0.000000,192.000000) scale(0.100000,-0.100000)" fill="#5774cb" stroke="none">
    <path d="M970 1165 c0 -28 -9 -31 -30 -12 l-14 12 13 -17 c7 -10 20 -18 27
-18 l14 0 0 30 c0 17 -2 30 -5 30 -3 0 -5 -11 -5 -25z" />
    <path d="M1055 1160 c3 -5 8 -10 11 -10 3 0 2 5 -1 10 -3 6 -8 10 -11 10 -3 0
-2 -4 1 -10z" />
    <path d="M1120 1116 c0 -2 8 -10 18 -17 l17 -14 -14 18 c-13 16 -21 21 -21 13z" />
    <path d="M968 820 c-2 -149 0 -270 5 -270 4 0 7 122 7 270 0 149 -2 270 -5
270 -2 0 -6 -122 -7 -270z" />
    <path d="M1110 1086 c0 -2 8 -10 18 -17 l17 -14 -14 18 c-13 16 -21 21 -21 13z" />
    <path d="M1160 1086 c0 -2 8 -10 18 -17 l17 -14 -14 18 c-13 16 -21 21 -21 13z" />
    <path d="M1035 1070 c3 -5 8 -10 11 -10 3 0 2 5 -1 10 -3 6 -8 10 -11 10 -3 0
-2 -4 1 -10z" />
    <path d="M1000 1060 c0 -5 5 -10 11 -10 5 0 7 5 4 10 -3 6 -8 10 -11 10 -2 0
-4 -4 -4 -10z" />
    <path d="M1150 1056 c0 -2 8 -10 18 -17 l17 -14 -14 18 c-13 16 -21 21 -21 13z" />
    <path d="M1073 1043 c4 -3 10 -3 14 0 3 4 0 7 -7 7 -7 0 -10 -3 -7 -7z" />
    <path d="M1045 1030 c3 -5 8 -10 11 -10 3 0 2 5 -1 10 -3 6 -8 10 -11 10 -3 0
-2 -4 1 -10z" />
    <path d="M1205 1010 c3 -5 8 -10 11 -10 3 0 2 5 -1 10 -3 6 -8 10 -11 10 -3 0
-2 -4 1 -10z" />
    <path d="M1130 1006 c0 -2 8 -10 18 -17 l17 -14 -14 18 c-13 16 -21 21 -21 13z" />
    <path d="M1245 980 c3 -5 8 -10 11 -10 3 0 2 5 -1 10 -3 6 -8 10 -11 10 -3 0
-2 -4 1 -10z" />
    <path d="M1175 970 c3 -5 8 -10 11 -10 3 0 2 5 -1 10 -3 6 -8 10 -11 10 -3 0
-2 -4 1 -10z" />
    <path d="M1285 950 c3 -5 8 -10 11 -10 3 0 2 5 -1 10 -3 6 -8 10 -11 10 -3 0
-2 -4 1 -10z" />
    <path d="M1215 940 c3 -5 8 -10 11 -10 3 0 2 5 -1 10 -3 6 -8 10 -11 10 -3 0
-2 -4 1 -10z" />
    <path d="M1210 906 c0 -2 8 -10 18 -17 l17 -14 -14 18 c-13 16 -21 21 -21 13z" />
    <path d="M1265 860 c3 -5 8 -10 11 -10 3 0 2 5 -1 10 -3 6 -8 10 -11 10 -3 0
-2 -4 1 -10z" />
    <path d="M1345 800 c3 -5 8 -10 11 -10 3 0 2 5 -1 10 -3 6 -8 10 -11 10 -3 0
-2 -4 1 -10z" />
    <path d="M965 489 c0 -16 3 -29 8 -29 4 0 7 11 7 24 0 14 -3 27 -7 29 -5 3 -8
-8 -8 -24z" />
  </g>
  <g transform="translate(0.000000,192.000000) scale(0.100000,-0.100000)" fill="#4665c2" stroke="none">
    <path d="M965 1190 c3 -5 8 -10 11 -10 3 0 2 5 -1 10 -3 6 -8 10 -11 10 -3 0
-2 -4 1 -10z" />
    <path d="M1015 1190 c3 -5 8 -10 11 -10 3 0 2 5 -1 10 -3 6 -8 10 -11 10 -3 0
-2 -4 1 -10z" />
    <path d="M990 1135 c0 -19 2 -35 4 -35 2 0 6 16 8 35 2 19 0 35 -4 35 -4 0 -8
-16 -8 -35z" />
    <path d="M1063 1153 c4 -3 10 -3 14 0 3 4 0 7 -7 7 -7 0 -10 -3 -7 -7z" />
    <path d="M1030 1140 c0 -5 5 -10 11 -10 5 0 7 5 4 10 -3 6 -8 10 -11 10 -2 0
-4 -4 -4 -10z" />
    <path d="M965 1090 c3 -5 8 -10 11 -10 3 0 2 5 -1 10 -3 6 -8 10 -11 10 -3 0
-2 -4 1 -10z" />
    <path d="M1143 1093 c4 -3 10 -3 14 0 3 4 0 7 -7 7 -7 0 -10 -3 -7 -7z" />
    <path d="M1183 1063 c4 -3 10 -3 14 0 3 4 0 7 -7 7 -7 0 -10 -3 -7 -7z" />
    <path d="M1030 1040 c0 -5 5 -10 11 -10 5 0 7 5 4 10 -3 6 -8 10 -11 10 -2 0
-4 -4 -4 -10z" />
    <path d="M1223 1033 c4 -3 10 -3 14 0 3 4 0 7 -7 7 -7 0 -10 -3 -7 -7z" />
    <path d="M1263 1003 c4 -3 10 -3 14 0 3 4 0 7 -7 7 -7 0 -10 -3 -7 -7z" />
    <path d="M818 665 c2 -63 6 -115 10 -115 4 0 6 52 4 115 -2 63 -6 115 -10 115
-4 0 -6 -52 -4 -115z" />
    <path d="M963 553 c4 -3 10 -3 14 0 3 4 0 7 -7 7 -7 0 -10 -3 -7 -7z" />
    <path d="M827 513 c-10 -9 -8 -53 2 -53 4 0 6 11 4 25 l-5 24 73 4 74 3 -71 2
c-39 1 -74 -1 -77 -5z" />
    <path d="M994 505 c-3 -8 -4 -20 -1 -27 l5 -13 1 22 1 22 43 4 42 4 -43 1 -43
2 -5 -15z" />
    <path d="M1118 513 c6 -2 18 -2 25 0 6 3 1 5 -13 5 -14 0 -19 -2 -12 -5z" />
    <path d="M963 463 c4 -3 10 -3 14 0 3 4 0 7 -7 7 -7 0 -10 -3 -7 -7z" />
  </g>
  <g transform="translate(0.000000,192.000000) scale(0.100000,-0.100000)" fill="#3660b7" stroke="none">
    <path d="M993 1250 c0 -25 2 -35 4 -22 2 12 2 32 0 45 -2 12 -4 2 -4 -23z" />
    <path d="M1025 1180 c3 -5 8 -10 11 -10 2 0 4 5 4 10 0 6 -5 10 -11 10 -5 0
-7 -4 -4 -10z" />
    <path d="M1075 1150 c3 -5 8 -10 11 -10 3 0 2 5 -1 10 -3 6 -8 10 -11 10 -3 0
-2 -4 1 -10z" />
    <path d="M1025 1140 c3 -5 8 -10 11 -10 2 0 4 5 4 10 0 6 -5 10 -11 10 -5 0
-7 -4 -4 -10z" />
    <path d="M953 1133 c4 -3 10 -3 14 0 3 4 0 7 -7 7 -7 0 -10 -3 -7 -7z" />
    <path d="M997 1099 c7 -7 15 -10 18 -7 3 3 -2 9 -12 12 l-18 7 12 -12z" />
    <path d="M953 1093 c4 -3 10 -3 14 0 3 4 0 7 -7 7 -7 0 -10 -3 -7 -7z" />
    <path d="M997 1063 c-4 -3 -6 -70 -5 -147 l2 -141 5 145 c4 80 6 146 5 148 0
1 -4 -1 -7 -5z" />
    <path d="M1043 1063 c4 -3 10 -3 14 0 3 4 0 7 -7 7 -7 0 -10 -3 -7 -7z" />
    <path d="M1030 1040 c0 -7 3 -10 7 -7 3 4 3 10 0 14 -4 3 -7 0 -7 -7z" />
    <path d="M710 635 l-5 -80 -30 -6 -30 -7 33 -1 33 -1 5 13 c3 8 3 47 2 88 l-4
74 -4 -80z" />
    <path d="M823 553 c4 -3 10 -3 14 0 3 4 0 7 -7 7 -7 0 -10 -3 -7 -7z" />
    <path d="M823 463 c4 -3 10 -3 14 0 3 4 0 7 -7 7 -7 0 -10 -3 -7 -7z" />
  </g>
  <g transform="translate(0.000000,192.000000) scale(0.100000,-0.100000)" fill="#b7c3e0" stroke="none">
    <path d="M983 1623 c4 -3 10 -3 14 0 3 4 0 7 -7 7 -7 0 -10 -3 -7 -7z" />
    <path d="M734 1368 l-7 -11 11 7 c12 7 16 16 8 16 -3 0 -8 -5 -12 -12z" />
    <path d="M785 1370 c3 -5 8 -10 11 -10 3 0 2 5 -1 10 -3 6 -8 10 -11 10 -3 0
-2 -4 1 -10z" />
    <path d="M825 1340 c3 -5 8 -10 11 -10 3 0 2 5 -1 10 -3 6 -8 10 -11 10 -3 0
-2 -4 1 -10z" />
    <path d="M775 1330 c3 -5 8 -10 11 -10 3 0 2 5 -1 10 -3 6 -8 10 -11 10 -3 0
-2 -4 1 -10z" />
    <path d="M644 1298 l-7 -11 11 7 c12 7 16 16 8 16 -3 0 -8 -5 -12 -12z" />
    <path d="M815 1300 c3 -5 8 -10 11 -10 3 0 2 5 -1 10 -3 6 -8 10 -11 10 -3 0
-2 -4 1 -10z" />
    <path d="M594 1258 l-7 -11 11 7 c12 7 16 16 8 16 -3 0 -8 -5 -12 -12z" />
    <path d="M805 1250 c3 -5 8 -10 11 -10 3 0 2 5 -1 10 -3 6 -8 10 -11 10 -3 0
-2 -4 1 -10z" />
    <path d="M734 1218 l-7 -11 11 7 c7 4 12 9 12 12 0 8 -9 4 -16 -8z" />
    <path d="M845 1220 c3 -5 8 -10 11 -10 3 0 2 5 -1 10 -3 6 -8 10 -11 10 -3 0
-2 -4 1 -10z" />
    <path d="M885 1190 c3 -5 8 -10 11 -10 3 0 2 5 -1 10 -3 6 -8 10 -11 10 -3 0
-2 -4 1 -10z" />
    <path d="M925 1160 c3 -5 8 -10 11 -10 3 0 2 5 -1 10 -3 6 -8 10 -11 10 -3 0
-2 -4 1 -10z" />
    <path d="M644 1148 l-7 -11 11 7 c12 7 16 16 8 16 -3 0 -8 -5 -12 -12z" />
    <path d="M1025 1140 c3 -5 8 -10 11 -10 3 0 2 5 -1 10 -3 6 -8 10 -11 10 -3 0
-2 -4 1 -10z" />
    <path d="M414 1118 l-7 -11 11 7 c12 7 16 16 8 16 -3 0 -8 -5 -12 -12z" />
    <path d="M1155 1090 c3 -5 8 -10 11 -10 3 0 2 5 -1 10 -3 6 -8 10 -11 10 -3 0
-2 -4 1 -10z" />
    <path d="M365 1079 c-4 -6 -5 -12 -2 -15 2 -3 7 2 10 11 7 17 1 20 -8 4z" />
    <path d="M1195 1060 c3 -5 8 -10 11 -10 3 0 2 5 -1 10 -3 6 -8 10 -11 10 -3 0
-2 -4 1 -10z" />
    <path d="M1175 1030 c3 -5 8 -10 11 -10 3 0 2 5 -1 10 -3 6 -8 10 -11 10 -3 0
-2 -4 1 -10z" />
    <path d="M1235 1030 c3 -5 8 -10 11 -10 3 0 2 5 -1 10 -3 6 -8 10 -11 10 -3 0
-2 -4 1 -10z" />
    <path d="M1125 1010 c3 -5 8 -10 11 -10 3 0 2 5 -1 10 -3 6 -8 10 -11 10 -3 0
-2 -4 1 -10z" />
    <path d="M1275 1000 c3 -5 8 -10 11 -10 3 0 2 5 -1 10 -3 6 -8 10 -11 10 -3 0
-2 -4 1 -10z" />
    <path d="M414 968 l-7 -11 11 7 c12 7 16 16 8 16 -3 0 -8 -5 -12 -12z" />
    <path d="M1255 970 c3 -5 8 -10 11 -10 3 0 2 5 -1 10 -3 6 -8 10 -11 10 -3 0
-2 -4 1 -10z" />
    <path d="M1315 970 c3 -5 8 -10 11 -10 3 0 2 5 -1 10 -3 6 -8 10 -11 10 -3 0
-2 -4 1 -10z" />
    <path d="M1295 940 c3 -5 8 -10 11 -10 3 0 2 5 -1 10 -3 6 -8 10 -11 10 -3 0
-2 -4 1 -10z" />
    <path d="M1355 940 c3 -5 8 -10 11 -10 3 0 2 5 -1 10 -3 6 -8 10 -11 10 -3 0
-2 -4 1 -10z" />
    <path d="M1395 910 c3 -5 8 -10 11 -10 3 0 2 5 -1 10 -3 6 -8 10 -11 10 -3 0
-2 -4 1 -10z" />
    <path d="M1435 880 c3 -5 8 -10 11 -10 3 0 2 5 -1 10 -3 6 -8 10 -11 10 -3 0
-2 -4 1 -10z" />
    <path d="M1355 790 c3 -5 8 -10 11 -10 3 0 2 5 -1 10 -3 6 -8 10 -11 10 -3 0
-2 -4 1 -10z" />
    <path d="M713 773 c4 -3 10 -3 14 0 3 4 0 7 -7 7 -7 0 -10 -3 -7 -7z" />
    <path d="M813 773 c4 -3 10 -3 14 0 3 4 0 7 -7 7 -7 0 -10 -3 -7 -7z" />
    <path d="M1395 760 c3 -5 8 -10 11 -10 3 0 2 5 -1 10 -3 6 -8 10 -11 10 -3 0
-2 -4 1 -10z" />
    <path d="M1535 700 c3 -5 8 -10 11 -10 3 0 2 5 -1 10 -3 6 -8 10 -11 10 -3 0
-2 -4 1 -10z" />
    <path d="M863 553 c20 -2 54 -2 75 0 20 2 3 4 -38 4 -41 0 -58 -2 -37 -4z" />
    <path d="M1093 233 c4 -3 10 -3 14 0 3 4 0 7 -7 7 -7 0 -10 -3 -7 -7z" />
  </g>
  <g transform="translate(0.000000,192.000000) scale(0.100000,-0.100000)" fill="#a5b6d6" stroke="none">
    <path d="M684 1328 l-7 -11 11 7 c7 4 12 9 12 12 0 8 -9 4 -16 -8z" />
    <path d="M760 1311 c0 -17 3 -32 8 -34 4 -3 7 10 7 29 0 19 -3 34 -7 34 -5 0
-8 -13 -8 -29z" />
    <path d="M634 1288 l-7 -11 11 7 c7 4 12 9 12 12 0 8 -9 4 -16 -8z" />
    <path d="M855 1270 c3 -5 8 -10 11 -10 3 0 2 5 -1 10 -3 6 -8 10 -11 10 -3 0
-2 -4 1 -10z" />
    <path d="M544 1218 l-7 -11 11 7 c12 7 16 16 8 16 -3 0 -8 -5 -12 -12z" />
    <path d="M694 1188 l-7 -11 11 7 c7 4 12 9 12 12 0 8 -9 4 -16 -8z" />
    <path d="M494 1178 l-7 -11 11 7 c12 7 16 16 8 16 -3 0 -8 -5 -12 -12z" />
    <path d="M454 1148 l-7 -11 11 7 c12 7 16 16 8 16 -3 0 -8 -5 -12 -12z" />
    <path d="M604 1118 l-7 -11 11 7 c12 7 16 16 8 16 -3 0 -8 -5 -12 -12z" />
    <path d="M1115 1120 c3 -5 8 -10 11 -10 3 0 2 5 -1 10 -3 6 -8 10 -11 10 -3 0
-2 -4 1 -10z" />
    <path d="M404 1108 l-7 -11 11 7 c12 7 16 16 8 16 -3 0 -8 -5 -12 -12z" />
    <path d="M549 1073 l-14 -18 18 14 c16 13 21 21 13 21 -2 0 -10 -8 -17 -17z" />
    <path d="M360 938 c0 -4 4 -8 9 -8 6 0 12 4 15 8 3 5 -1 9 -9 9 -8 0 -15 -4
-15 -9z" />
    <path d="M1565 780 c3 -5 8 -10 11 -10 3 0 2 5 -1 10 -3 6 -8 10 -11 10 -3 0
-2 -4 1 -10z" />
    <path d="M743 773 c15 -2 39 -2 55 0 15 2 2 4 -28 4 -30 0 -43 -2 -27 -4z" />
  </g>
  <g transform="translate(0.000000,192.000000) scale(0.100000,-0.100000)" fill="#8da1d2" stroke="none">
    <path d="M763 1333 c4 -3 10 -3 14 0 3 4 0 7 -7 7 -7 0 -10 -3 -7 -7z" />
    <path d="M584 1248 l-7 -11 11 7 c12 7 16 16 8 16 -3 0 -8 -5 -12 -12z" />
  </g>
  <g transform="translate(0.000000,192.000000) scale(0.100000,-0.100000)" fill="#7aa6ac" stroke="none">
    <path d="M444 1138 l-7 -11 11 7 c12 7 16 16 8 16 -3 0 -8 -5 -12 -12z" />
    <path d="M394 1098 l-7 -11 11 7 c12 7 16 16 8 16 -3 0 -8 -5 -12 -12z" />
    <path d="M363 1000 c0 -41 2 -58 4 -37 2 20 2 54 0 75 -2 20 -4 3 -4 -38z" />
  </g>
</svg>