<svg data-v-423bf9ae="" xmlns="http://www.w3.org/2000/svg" viewBox="0 0 523 90" class="iconLeft"><!----><!----><!----><g data-v-423bf9ae="" id="f1074956-ff85-4945-9207-5c92582ced98" fill="#000000" transform="matrix(5.6550420875057705,0,0,5.6550420875057705,144.64338658016342,-7.111214809105142)"><path d="M2.84 14.52C3.93 14.52 4.73 14.03 4.97 13.09L5.05 13.09C5.17 13.85 5.64 14.35 6.41 14.35L7.41 14.35L7.41 12.92L6.68 12.92L6.68 9.48C6.68 7.81 5.63 6.87 3.65 6.87C2.18 6.87 1.33 7.43 0.80 8.27L1.86 9.23C2.21 8.72 2.69 8.30 3.53 8.30C4.48 8.30 4.89 8.78 4.89 9.59L4.89 10.12L3.64 10.12C1.65 10.12 0.52 10.86 0.52 12.36C0.52 13.66 1.36 14.52 2.84 14.52ZM3.44 13.22C2.74 13.22 2.34 12.92 2.34 12.33L2.34 12.10C2.34 11.52 2.80 11.20 3.74 11.20L4.89 11.20L4.89 12.17C4.89 12.85 4.24 13.22 3.44 13.22ZM10.65 14.35L10.65 9.87C10.65 9.07 11.28 8.74 12.49 8.74L13.05 8.74L13.05 7.04L12.66 7.04C11.49 7.04 10.91 7.78 10.72 8.55L10.65 8.55L10.65 7.04L8.86 7.04L8.86 14.35ZM17.18 14.52C18.59 14.52 19.61 13.87 20.09 12.59L18.72 11.93C18.45 12.59 18.03 13.08 17.18 13.08C16.18 13.08 15.68 12.39 15.68 11.37L15.68 10.04C15.68 9.02 16.18 8.32 17.18 8.32C17.95 8.32 18.41 8.76 18.58 9.38L20.05 8.72C19.61 7.57 18.65 6.87 17.18 6.87C15.02 6.87 13.80 8.34 13.80 10.68C13.80 13.03 15.02 14.52 17.18 14.52ZM21.48 14.35L23.27 14.35L23.27 9.52C23.27 8.74 23.98 8.34 24.72 8.34C25.58 8.34 25.93 8.88 25.93 9.91L25.93 14.35L27.72 14.35L27.72 9.73C27.72 7.91 26.88 6.87 25.38 6.87C24.25 6.87 23.63 7.48 23.34 8.26L23.27 8.26L23.27 3.99L21.48 3.99ZM30.60 5.98C31.33 5.98 31.65 5.60 31.65 5.08L31.65 4.80C31.65 4.28 31.33 3.91 30.60 3.91C29.86 3.91 29.55 4.28 29.55 4.80L29.55 5.08C29.55 5.60 29.86 5.98 30.60 5.98ZM29.71 14.35L31.50 14.35L31.50 7.04L29.71 7.04ZM36.72 14.52C39.06 14.52 40.39 13.26 40.39 11.41C40.39 9.80 39.47 8.92 37.49 8.57L36.58 8.40C35.64 8.23 35.22 7.92 35.22 7.18C35.22 6.45 35.77 6.03 36.82 6.03C37.86 6.03 38.53 6.44 39.00 7.04L40.26 5.85C39.48 4.91 38.39 4.41 36.92 4.41C34.73 4.41 33.38 5.54 33.38 7.29C33.38 8.89 34.33 9.83 36.30 10.14L37.23 10.28C38.25 10.46 38.56 10.86 38.56 11.52C38.56 12.35 37.97 12.89 36.83 12.89C35.83 12.89 35.00 12.47 34.33 11.69L33.08 12.89C33.91 13.86 35.06 14.52 36.72 14.52ZM44.35 14.35L45.64 14.35L45.64 12.92L44.25 12.92L44.25 8.47L45.75 8.47L45.75 7.04L44.25 7.04L44.25 5.04L42.64 5.04L42.64 6.29C42.64 6.79 42.48 7.04 41.94 7.04L41.38 7.04L41.38 8.47L42.46 8.47L42.46 12.49C42.46 13.68 43.12 14.35 44.35 14.35ZM50.15 14.52C52.25 14.52 53.55 13.03 53.55 10.68C53.55 8.34 52.25 6.87 50.15 6.87C48.06 6.87 46.76 8.34 46.76 10.68C46.76 13.03 48.06 14.52 50.15 14.52ZM50.15 13.08C49.22 13.08 48.64 12.47 48.64 11.37L48.64 10.01C48.64 8.92 49.22 8.32 50.15 8.32C51.09 8.32 51.67 8.92 51.67 10.01L51.67 11.37C51.67 12.47 51.09 13.08 50.15 13.08ZM56.92 14.35L56.92 9.87C56.92 9.07 57.55 8.74 58.76 8.74L59.32 8.74L59.32 7.04L58.93 7.04C57.76 7.04 57.18 7.78 56.99 8.55L56.92 8.55L56.92 7.04L55.13 7.04L55.13 14.35ZM63.52 14.52C64.88 14.52 65.94 14 66.54 13.17L65.58 12.10C65.13 12.67 64.60 13.09 63.71 13.09C62.54 13.09 61.94 12.38 61.94 11.33L61.94 11.14L66.79 11.14L66.79 10.56C66.79 8.55 65.74 6.87 63.46 6.87C61.32 6.87 60.07 8.37 60.07 10.68C60.07 13.02 61.36 14.52 63.52 14.52ZM63.49 8.22C64.41 8.22 64.93 8.90 64.93 9.91L64.93 10.04L61.94 10.04L61.94 9.93C61.94 8.92 62.55 8.22 63.49 8.22Z"></path></g><defs data-v-423bf9ae=""><linearGradient data-v-423bf9ae="" gradientTransform="rotate(25)" id="31947ae7-719a-4824-b672-1caa36617b08" x1="0%" y1="0%" x2="100%" y2="0%"><stop data-v-423bf9ae="" offset="0%" style="stop-color: rgb(40, 139, 88); stop-opacity: 1;"></stop><stop data-v-423bf9ae="" offset="100%" style="stop-color: rgb(21, 34, 241); stop-opacity: 1;"></stop></linearGradient></defs><g data-v-423bf9ae="" id="d0f331cd-ee13-4341-b30f-1c6a5145a359" transform="matrix(1.4399999121093803,0,0,1.4399999121093803,-7.299999916076672,-26.227998692138698)" stroke="none" fill="url(#31947ae7-719a-4824-b672-1caa36617b08)"><path d="M94.3 71.1H53.7v-2.3h32.9v-1.7H53.7V47.7L83 63.2l.8-1.5-30.1-16V43l29.1 15.4.8-1.5-29.9-15.8V31H52v9.2l-5.4-2.9V18.7h-1.7v17.7l-13.4-7.1L5.7 43.5v6.6l5.7-3.1v25.8H52v8.4h1.7v-8.4h40.6v-1.7zm-42.3-4h-5.4V43.9l5.4 2.9v20.3zm0-24.9v2.7L46.5 42v-2.7l5.5 2.9zm-7.2-3.8V41l-13.4-7v-2.7l13.4 7.1zm-27.6 5.4L31.4 36l13.4 7v24h-9.1V57H28v10.1H17.2V43.8zm27.6 25v2.3h-9.1v-2.3h9.1zm1.7 2.3v-2.3H52v2.3h-5.5z"></path></g><!----></svg>